<svg width="18" height="17" viewBox="0 0 18 17" fill="none" xmlns="http://www.w3.org/2000/svg">
<path d="M4.39841 16.1052V5.3H0.810138V16.1052H4.39879H4.39841ZM2.60503 3.825C3.85607 3.825 4.63493 2.99529 4.63493 1.95839C4.61151 0.89786 3.85607 0.0913086 2.62882 0.0913086C1.40072 0.0913086 0.598633 0.89786 0.598633 1.95829C0.598633 2.99519 1.37721 3.8249 2.58151 3.8249H2.60474L2.60503 3.825ZM6.38458 16.1052H9.97257V10.0717C9.97257 9.74921 9.99599 9.42586 10.0908 9.19551C10.3501 8.55002 10.9405 7.88185 11.9319 7.88185C13.23 7.88185 13.7496 8.87263 13.7496 10.3253V16.1052H17.3375V9.90981C17.3375 6.59107 15.5675 5.04668 13.2068 5.04668C11.2713 5.04668 10.4212 6.12943 9.94897 6.86689H9.97285V5.30038H6.38476C6.4316 6.31403 6.38448 16.1055 6.38448 16.1055L6.38458 16.1052Z" fill="white"/>
</svg>
