<svg width="18" height="17" viewBox="0 0 18 17" fill="none" xmlns="http://www.w3.org/2000/svg">
<path d="M9.00033 14.2752L4.85033 16.7752C4.667 16.8919 4.47533 16.9419 4.27533 16.9252C4.07533 16.9085 3.90033 16.8419 3.75033 16.7252C3.60033 16.6085 3.48366 16.4629 3.40033 16.2882C3.317 16.1135 3.30033 15.9175 3.35033 15.7002L4.45033 10.9752L0.775329 7.8002C0.608662 7.6502 0.504662 7.4792 0.463329 7.2872C0.421996 7.0952 0.434329 6.90786 0.500329 6.7252C0.566329 6.54253 0.666329 6.39253 0.800329 6.2752C0.934329 6.15786 1.11766 6.08286 1.35033 6.0502L6.20033 5.6252L8.07533 1.1752C8.15866 0.975195 8.288 0.825195 8.46333 0.725195C8.63866 0.625195 8.81766 0.575195 9.00033 0.575195C9.183 0.575195 9.362 0.625195 9.53733 0.725195C9.71266 0.825195 9.842 0.975195 9.92533 1.1752L11.8003 5.6252L16.6503 6.0502C16.8837 6.08353 17.067 6.15853 17.2003 6.2752C17.3337 6.39186 17.4337 6.54186 17.5003 6.7252C17.567 6.90853 17.5797 7.0962 17.5383 7.2882C17.497 7.4802 17.3927 7.65086 17.2253 7.8002L13.5503 10.9752L14.6503 15.7002C14.7003 15.9169 14.6837 16.1129 14.6003 16.2882C14.517 16.4635 14.4003 16.6092 14.2503 16.7252C14.1003 16.8412 13.9253 16.9079 13.7253 16.9252C13.5253 16.9425 13.3337 16.8925 13.1503 16.7752L9.00033 14.2752Z" fill="#FFAB0D"/>
</svg>
